<svg xmlns="http://www.w3.org/2000/svg" viewBox="0 0 480 120" fill="none">
  <!-- Background (transparent for versatility) -->

  <!-- Diamond / Vault Icon -->
  <rect x="8" y="8" width="104" height="104" rx="20" fill="#0A0A0F"/>
  <rect x="8" y="8" width="104" height="104" rx="20" stroke="#C9A84C" stroke-width="1.5" stroke-opacity="0.5"/>

  <!-- Kente-inspired corner accents -->
  <rect x="8" y="8" width="18" height="3" rx="1.5" fill="#C9A84C" fill-opacity="0.4"/>
  <rect x="8" y="8" width="3" height="18" rx="1.5" fill="#C9A84C" fill-opacity="0.4"/>
  <rect x="94" y="8" width="18" height="3" rx="1.5" fill="#C9A84C" fill-opacity="0.4"/>
  <rect x="109" y="8" width="3" height="18" rx="1.5" fill="#C9A84C" fill-opacity="0.4"/>
  <rect x="8" y="109" width="18" height="3" rx="1.5" fill="#C9A84C" fill-opacity="0.4"/>
  <rect x="8" y="94" width="3" height="18" rx="1.5" fill="#C9A84C" fill-opacity="0.4"/>
  <rect x="94" y="109" width="18" height="3" rx="1.5" fill="#C9A84C" fill-opacity="0.4"/>
  <rect x="109" y="94" width="3" height="18" rx="1.5" fill="#C9A84C" fill-opacity="0.4"/>

  <!-- 3D Cube / Vault -->
  <path d="M60 22L82 34V58L60 70L38 58V34L60 22Z" fill="#C9A84C" fill-opacity="0.95"/>
  <path d="M38 58L60 70V98L38 86V58Z" fill="#8B6F2E"/>
  <path d="M82 58L60 70V98L82 86V58Z" fill="#C9A84C" fill-opacity="0.65"/>

  <!-- Highlight on top face -->
  <path d="M60 22L82 34L60 46L38 34L60 22Z" fill="white" fill-opacity="0.12"/>

  <!-- Wordmark -->
  <!-- H -->
  <rect x="148" y="36" width="7" height="48" rx="3.5" fill="#C9A84C"/>
  <rect x="169" y="36" width="7" height="48" rx="3.5" fill="#C9A84C"/>
  <rect x="148" y="56" width="28" height="7" rx="3.5" fill="#C9A84C"/>

  <!-- A -->
  <path d="M195 84 L209 36 L223 84" stroke="#C9A84C" stroke-width="7" stroke-linecap="round" stroke-linejoin="round" fill="none"/>
  <line x1="200" y1="66" x2="218" y2="66" stroke="#C9A84C" stroke-width="6" stroke-linecap="round"/>

  <!-- Z -->
  <rect x="232" y="36" width="28" height="7" rx="3.5" fill="#C9A84C"/>
  <rect x="232" y="77" width="28" height="7" rx="3.5" fill="#C9A84C"/>
  <line x1="260" y1="43" x2="232" y2="77" stroke="#C9A84C" stroke-width="7" stroke-linecap="round"/>

  <!-- I -->
  <rect x="272" y="36" width="7" height="48" rx="3.5" fill="#C9A84C"/>

  <!-- N -->
  <rect x="292" y="36" width="7" height="48" rx="3.5" fill="#C9A84C"/>
  <rect x="319" y="36" width="7" height="48" rx="3.5" fill="#C9A84C"/>
  <line x1="299" y1="36" x2="319" y2="84" stroke="#C9A84C" stroke-width="7" stroke-linecap="round"/>

  <!-- A -->
  <path d="M337 84 L351 36 L365 84" stroke="#C9A84C" stroke-width="7" stroke-linecap="round" stroke-linejoin="round" fill="none"/>
  <line x1="342" y1="66" x2="360" y2="66" stroke="#C9A84C" stroke-width="6" stroke-linecap="round"/>

  <!-- Tagline -->
  <text x="148" y="108" font-family="system-ui, sans-serif" font-size="11" font-weight="500" letter-spacing="4" fill="#C9A84C" fill-opacity="0.55">DATA ESCROW · STELLAR · AI</text>
</svg>
